<?xml version="1.0" encoding="UTF-8" standalone="no"?>
<!-- Created with Inkscape (http://www.inkscape.org/) -->

<svg
   xmlns:dc="http://purl.org/dc/elements/1.1/"
   xmlns:cc="http://creativecommons.org/ns#"
   xmlns:rdf="http://www.w3.org/1999/02/22-rdf-syntax-ns#"
   xmlns:svg="http://www.w3.org/2000/svg"
   xmlns="http://www.w3.org/2000/svg"
   xmlns:xlink="http://www.w3.org/1999/xlink"
   xmlns:sodipodi="http://sodipodi.sourceforge.net/DTD/sodipodi-0.dtd"
   xmlns:inkscape="http://www.inkscape.org/namespaces/inkscape"
   width="1500"
   height="800"
   viewBox="0 0 1500 800.00001"
   id="svg2"
   version="1.1"
   inkscape:version="0.91 r13725"
   sodipodi:docname="proposta-3.svg">
  <defs
     id="defs4">
    <linearGradient
       id="linearGradient2795">
      <stop
         id="stop2797"
         offset="0"
         style="stop-color:#b8b8b8;stop-opacity:0.49803922;" />
      <stop
         id="stop2799"
         offset="1"
         style="stop-color:#7f7f7f;stop-opacity:0;" />
    </linearGradient>
    <linearGradient
       id="linearGradient2787">
      <stop
         id="stop2789"
         offset="0"
         style="stop-color:#7f7f7f;stop-opacity:0.5;" />
      <stop
         id="stop2791"
         offset="1"
         style="stop-color:#7f7f7f;stop-opacity:0;" />
    </linearGradient>
    <linearGradient
       id="linearGradient3676">
      <stop
         id="stop3678"
         offset="0"
         style="stop-color:#b2b2b2;stop-opacity:0.5;" />
      <stop
         id="stop3680"
         offset="1"
         style="stop-color:#b3b3b3;stop-opacity:0;" />
    </linearGradient>
    <linearGradient
       id="linearGradient3236">
      <stop
         id="stop3244"
         offset="0"
         style="stop-color:#f4f4f4;stop-opacity:1" />
      <stop
         id="stop3240"
         offset="1"
         style="stop-color:white;stop-opacity:1" />
    </linearGradient>
    <linearGradient
       id="linearGradient4671">
      <stop
         id="stop4673"
         offset="0"
         style="stop-color:#ffd43b;stop-opacity:1;" />
      <stop
         id="stop4675"
         offset="1"
         style="stop-color:#ffe873;stop-opacity:1" />
    </linearGradient>
    <linearGradient
       id="linearGradient4689">
      <stop
         id="stop4691"
         offset="0"
         style="stop-color:#5a9fd4;stop-opacity:1;" />
      <stop
         id="stop4693"
         offset="1"
         style="stop-color:#306998;stop-opacity:1;" />
    </linearGradient>
    <linearGradient
       gradientTransform="translate(100.2702,99.61116)"
       gradientUnits="userSpaceOnUse"
       xlink:href="#linearGradient4671"
       id="linearGradient2987"
       y2="144.75717"
       x2="-65.308502"
       y1="144.75717"
       x1="224.23996" />
    <linearGradient
       gradientTransform="translate(100.2702,99.61116)"
       gradientUnits="userSpaceOnUse"
       xlink:href="#linearGradient4689"
       id="linearGradient2990"
       y2="76.313133"
       x2="26.670298"
       y1="77.475983"
       x1="172.94208" />
    <linearGradient
       y2="144.75717"
       x2="-65.308502"
       y1="144.75717"
       x1="224.23996"
       gradientTransform="matrix(0.562541,0,0,0.567972,-11.5974,-7.60954)"
       gradientUnits="userSpaceOnUse"
       id="linearGradient2255"
       xlink:href="#linearGradient4671"
       inkscape:collect="always" />
    <linearGradient
       y2="76.313133"
       x2="26.670298"
       y1="76.176224"
       x1="172.94208"
       gradientTransform="matrix(0.562541,0,0,0.567972,-11.5974,-7.60954)"
       gradientUnits="userSpaceOnUse"
       id="linearGradient2258"
       xlink:href="#linearGradient4689"
       inkscape:collect="always" />
    <radialGradient
       gradientUnits="userSpaceOnUse"
       gradientTransform="matrix(1,0,0,0.177966,0,108.7434)"
       r="29.036913"
       fy="132.28575"
       fx="61.518883"
       cy="132.28575"
       cx="61.518883"
       id="radialGradient2801"
       xlink:href="#linearGradient2795"
       inkscape:collect="always" />
    <linearGradient
       inkscape:collect="always"
       xlink:href="#linearGradient4689"
       id="linearGradient5277"
       gradientUnits="userSpaceOnUse"
       gradientTransform="matrix(1.7639632,0,0,1.7809932,198.79639,350.65948)"
       x1="26.648937"
       y1="20.603781"
       x2="135.66525"
       y2="114.39767" />
    <linearGradient
       inkscape:collect="always"
       xlink:href="#linearGradient4671"
       id="linearGradient5279"
       gradientUnits="userSpaceOnUse"
       gradientTransform="matrix(1.7639632,0,0,-1.7809932,723.24685,678.65813)"
       x1="150.96111"
       y1="192.35176"
       x2="112.03144"
       y2="137.27299" />
  </defs>
  <sodipodi:namedview
     id="base"
     pagecolor="#ffffff"
     bordercolor="#666666"
     borderopacity="1.0"
     inkscape:pageopacity="0.0"
     inkscape:pageshadow="2"
     inkscape:zoom="0.69999999"
     inkscape:cx="602.88309"
     inkscape:cy="356.4614"
     inkscape:document-units="px"
     inkscape:current-layer="layer1"
     showgrid="false"
     inkscape:window-width="1366"
     inkscape:window-height="704"
     inkscape:window-x="0"
     inkscape:window-y="27"
     inkscape:window-maximized="1"
     units="px" />
  <metadata
     id="metadata7">
    <rdf:RDF>
      <cc:Work
         rdf:about="">
        <dc:format>image/svg+xml</dc:format>
        <dc:type
           rdf:resource="http://purl.org/dc/dcmitype/StillImage" />
        <dc:title />
      </cc:Work>
    </rdf:RDF>
  </metadata>
  <g
     inkscape:label="Camada 1"
     inkscape:groupmode="layer"
     id="layer1"
     transform="translate(0,-252.36216)">
    <path
       style="fill:url(#linearGradient5277);fill-opacity:1"
       d="m 418.01391,387.35725 c -14.373,0.0666 -28.09872,1.29336 -40.17608,3.43046 -35.57841,6.28559 -42.03894,19.44109 -42.03894,43.70328 l 0,32.04278 84.07612,0 0,10.68152 -84.07612,0 -31.5525,0 c -24.43485,0 -45.83128,14.68669 -52.52358,42.62587 -7.71959,32.02487 -8.06196,52.00962 0,85.4487 3.98779,16.60864 11.6758,30.02095 23.60542,37.11464 27.36944,-57.58897 65.01928,-109.18073 112.25266,-109.87132 20.56772,-0.3008 39.97603,9.20272 57.92063,24.74079 l 16.31401,0 c 23.37653,0 42.03718,-19.24773 42.03718,-42.72431 l 0,-80.05867 c 0,-22.78509 -19.22095,-39.90049 -42.03718,-43.70328 -14.44305,-2.40416 -29.42864,-3.49723 -43.80162,-3.43046 z m -45.46764,25.77239 c 8.68447,0 15.77625,7.20716 15.77625,16.06976 -5e-5,8.83119 -7.09178,15.97302 -15.77625,15.97302 -8.71563,0 -15.778,-7.14183 -15.778,-15.97302 -5e-5,-8.8626 7.06237,-16.06976 15.778,-16.06976 z"
       id="path5273"
       inkscape:connector-curvature="0"
       sodipodi:nodetypes="ccsccccscccscsssccsssss"
       inkscape:export-xdpi="26.629999"
       inkscape:export-ydpi="26.629999" />
    <path
       style="fill:url(#linearGradient5279);fill-opacity:1"
       d="m 944.88984,289.54702 c -14.63354,-0.0976 -28.46449,2.2502 -42.60305,6.40751 -22.22486,6.53699 -42.03718,19.93913 -42.03718,42.72431 l 0,80.05867 c 0,19.92006 14.2376,37.32411 32.96192,41.67164 22.3617,-19.18079 47.09076,-30.82941 74.17137,-30.78442 50.5047,0.0837 98.113,41.57968 139.2077,97.0194 2.365,-5.20044 4.255,-10.98907 5.7889,-17.16813 8.4044,-33.78487 8.7779,-59.11051 0,-85.4469 -8.4977,-25.58218 -17.6023,-42.62587 -42.0371,-42.62587 l -42.039,0 -83.97768,0 0,-10.68152 83.97768,0 0,-32.04287 c 0,-24.26219 -20.8707,-36.59591 -42.03716,-42.72431 -14.92648,-4.33115 -28.46445,-6.32131 -41.3764,-6.40751 z m 46.66796,27.76876 c 8.7156,0 15.7762,7.20887 15.7762,16.07156 0,8.83119 -7.0606,15.97293 -15.7762,15.97302 -8.68454,0 -15.77801,-7.14183 -15.77801,-15.97302 0,-8.86269 7.09349,-16.07156 15.77801,-16.07156 z"
       id="path5275"
       inkscape:connector-curvature="0"
       sodipodi:nodetypes="scsscscccsccccscssscss"
       inkscape:export-xdpi="26.629999"
       inkscape:export-ydpi="26.629999" />
    <path
       sodipodi:nodetypes="cccccccccccccccccc"
       inkscape:connector-curvature="0"
       style="opacity:1;fill:#212121;fill-opacity:1;stroke:none;stroke-width:0.20701601;stroke-linecap:butt;stroke-linejoin:miter;stroke-miterlimit:4;stroke-dasharray:none;stroke-opacity:1"
       d="m 750.04976,675.26393 c -265.15239,0.0657 -516.19197,37.17511 -683.829695,101.08701 l -0.164931,0 0,0.0567 -0.317987,0.11203 0.317987,0 0,8.09507 1368.068166,0 0,-8.09507 0.1395,0 -0.1395,-0.0486 0,-0.12048 -0.351,0 C 1266.1584,712.44777 1015.1645,675.33888 750.04976,675.26357 Z m 0,29.60173 c 219.18366,0.13749 430.37904,25.61503 592.55894,71.48528 l -1185.03541,0 c 162.15869,-45.86432 373.32135,-71.34212 592.47647,-71.48528 z"
       id="path5171"
       inkscape:export-xdpi="26.629999"
       inkscape:export-ydpi="26.629999" />
    <path
       inkscape:connector-curvature="0"
       style="fill:#212121;fill-opacity:1;fill-rule:evenodd;stroke:none;stroke-width:1px;stroke-linecap:butt;stroke-linejoin:miter;stroke-opacity:1"
       d="m 387.58147,532.53309 c -88.21168,1.28977 -143.01903,180.10138 -159.80322,243.98719 l 7.18583,0 c 22.45352,-76.40183 74.34959,-217.16842 152.61739,-218.31278 79.0751,-1.15632 141.03659,142.39981 168.2854,218.31278 l 8.85007,0 C 544.544,714.84886 476.98397,531.22579 387.58147,532.53309 Z"
       id="path5185"
       inkscape:export-xdpi="26.629999"
       inkscape:export-ydpi="26.629999" />
    <path
       inkscape:connector-curvature="0"
       style="fill:#212121;fill-opacity:1;fill-rule:evenodd;stroke:none;stroke-width:1px;stroke-linecap:butt;stroke-linejoin:miter;stroke-opacity:1"
       d="m 629.36732,464.33089 c -33.23047,44.62719 -47.03334,252.98997 -50.32865,312.18939 l 9.27529,0 c 6.47558,-102.61656 22.44381,-284.797 54.40057,-284.797 32.49952,0 54.96111,184.33931 68.01208,284.797 l 13.77263,0 C 717.73693,714.90492 692.72051,508.82869 656.03298,464.33089 l -26.66566,0 z"
       id="path5190"
       inkscape:export-xdpi="26.629999"
       inkscape:export-ydpi="26.629999" />
    <path
       inkscape:connector-curvature="0"
       style="fill:#212121;fill-opacity:1;fill-rule:evenodd;stroke:none;stroke-width:1px;stroke-linecap:butt;stroke-linejoin:miter;stroke-opacity:1"
       d="M 967.38374,429.625 C 838.08889,429.41022 762.35604,695.6373 742.3106,776.52028 l 30.70037,0 C 801.5354,665.6034 868.85565,454.27886 967.92058,455.25397 c 76.66082,0 183.28352,216.27591 230.56152,321.26631 l 36.3537,0 C 1200.8788,686.50207 1093.0879,429.83393 967.38374,429.625 Z"
       id="path5198"
       inkscape:export-xdpi="26.629999"
       inkscape:export-ydpi="26.629999" />
    <text
       xml:space="preserve"
       style="font-style:normal;font-weight:normal;font-size:35.99169922px;line-height:125%;font-family:sans-serif;letter-spacing:0px;word-spacing:0px;fill:#000000;fill-opacity:1;stroke:none;stroke-width:1px;stroke-linecap:butt;stroke-linejoin:miter;stroke-opacity:1"
       x="270.65619"
       y="973.06836"
       id="text5314"
       sodipodi:linespacing="125%"
       inkscape:export-xdpi="26.629999"
       inkscape:export-ydpi="26.629999"><tspan
         sodipodi:role="line"
         x="270.65619"
         y="973.06836"
         style="font-style:normal;font-variant:normal;font-weight:normal;font-stretch:normal;font-size:202.45330811px;font-family:Ubuntu;-inkscape-font-specification:Ubuntu;fill:#212121;fill-opacity:1"
         id="tspan5318">Grupy-DF</tspan></text>
  </g>
</svg>
