<?xml version="1.0" encoding="UTF-8" standalone="no"?>
<!-- Created with Inkscape (http://www.inkscape.org/) -->

<svg
   xmlns:dc="http://purl.org/dc/elements/1.1/"
   xmlns:cc="http://creativecommons.org/ns#"
   xmlns:rdf="http://www.w3.org/1999/02/22-rdf-syntax-ns#"
   xmlns:svg="http://www.w3.org/2000/svg"
   xmlns="http://www.w3.org/2000/svg"
   xmlns:xlink="http://www.w3.org/1999/xlink"
   xmlns:sodipodi="http://sodipodi.sourceforge.net/DTD/sodipodi-0.dtd"
   xmlns:inkscape="http://www.inkscape.org/namespaces/inkscape"
   width="1500"
   height="800"
   viewBox="0 0 1500 800.00001"
   id="svg2"
   version="1.1"
   inkscape:version="0.91 r13725"
   sodipodi:docname="proposta-4.svg">
  <defs
     id="defs4">
    <linearGradient
       id="linearGradient2795">
      <stop
         id="stop2797"
         offset="0"
         style="stop-color:#b8b8b8;stop-opacity:0.49803922;" />
      <stop
         id="stop2799"
         offset="1"
         style="stop-color:#7f7f7f;stop-opacity:0;" />
    </linearGradient>
    <linearGradient
       id="linearGradient2787">
      <stop
         id="stop2789"
         offset="0"
         style="stop-color:#7f7f7f;stop-opacity:0.5;" />
      <stop
         id="stop2791"
         offset="1"
         style="stop-color:#7f7f7f;stop-opacity:0;" />
    </linearGradient>
    <linearGradient
       id="linearGradient3676">
      <stop
         id="stop3678"
         offset="0"
         style="stop-color:#b2b2b2;stop-opacity:0.5;" />
      <stop
         id="stop3680"
         offset="1"
         style="stop-color:#b3b3b3;stop-opacity:0;" />
    </linearGradient>
    <linearGradient
       id="linearGradient3236">
      <stop
         id="stop3244"
         offset="0"
         style="stop-color:#f4f4f4;stop-opacity:1" />
      <stop
         id="stop3240"
         offset="1"
         style="stop-color:white;stop-opacity:1" />
    </linearGradient>
    <linearGradient
       id="linearGradient4671">
      <stop
         id="stop4673"
         offset="0"
         style="stop-color:#ffd43b;stop-opacity:1;" />
      <stop
         id="stop4675"
         offset="1"
         style="stop-color:#ffe873;stop-opacity:1" />
    </linearGradient>
    <linearGradient
       id="linearGradient4689">
      <stop
         id="stop4691"
         offset="0"
         style="stop-color:#5a9fd4;stop-opacity:1;" />
      <stop
         id="stop4693"
         offset="1"
         style="stop-color:#306998;stop-opacity:1;" />
    </linearGradient>
    <linearGradient
       gradientTransform="translate(100.2702,99.61116)"
       gradientUnits="userSpaceOnUse"
       xlink:href="#linearGradient4671"
       id="linearGradient2987"
       y2="144.75717"
       x2="-65.308502"
       y1="144.75717"
       x1="224.23996" />
    <linearGradient
       gradientTransform="translate(100.2702,99.61116)"
       gradientUnits="userSpaceOnUse"
       xlink:href="#linearGradient4689"
       id="linearGradient2990"
       y2="76.313133"
       x2="26.670298"
       y1="77.475983"
       x1="172.94208" />
    <linearGradient
       y2="144.75717"
       x2="-65.308502"
       y1="144.75717"
       x1="224.23996"
       gradientTransform="matrix(0.562541,0,0,0.567972,-11.5974,-7.60954)"
       gradientUnits="userSpaceOnUse"
       id="linearGradient2255"
       xlink:href="#linearGradient4671"
       inkscape:collect="always" />
    <linearGradient
       y2="76.313133"
       x2="26.670298"
       y1="76.176224"
       x1="172.94208"
       gradientTransform="matrix(0.562541,0,0,0.567972,-11.5974,-7.60954)"
       gradientUnits="userSpaceOnUse"
       id="linearGradient2258"
       xlink:href="#linearGradient4689"
       inkscape:collect="always" />
    <radialGradient
       gradientUnits="userSpaceOnUse"
       gradientTransform="matrix(1,0,0,0.177966,0,108.7434)"
       r="29.036913"
       fy="132.28575"
       fx="61.518883"
       cy="132.28575"
       cx="61.518883"
       id="radialGradient2801"
       xlink:href="#linearGradient2795"
       inkscape:collect="always" />
    <linearGradient
       inkscape:collect="always"
       xlink:href="#linearGradient4689"
       id="linearGradient5348"
       gradientUnits="userSpaceOnUse"
       gradientTransform="matrix(5.2365231,0,0,5.2870786,265.10834,175.28994)"
       x1="26.648937"
       y1="20.603781"
       x2="135.66525"
       y2="114.39767" />
  </defs>
  <sodipodi:namedview
     id="base"
     pagecolor="#ffffff"
     bordercolor="#666666"
     borderopacity="1.0"
     inkscape:pageopacity="0.0"
     inkscape:pageshadow="2"
     inkscape:zoom="0.35"
     inkscape:cx="543.79032"
     inkscape:cy="178.33788"
     inkscape:document-units="px"
     inkscape:current-layer="layer1"
     showgrid="false"
     inkscape:window-width="1366"
     inkscape:window-height="704"
     inkscape:window-x="0"
     inkscape:window-y="27"
     inkscape:window-maximized="1"
     units="px" />
  <metadata
     id="metadata7">
    <rdf:RDF>
      <cc:Work
         rdf:about="">
        <dc:format>image/svg+xml</dc:format>
        <dc:type
           rdf:resource="http://purl.org/dc/dcmitype/StillImage" />
        <dc:title />
      </cc:Work>
    </rdf:RDF>
  </metadata>
  <g
     inkscape:label="Camada 1"
     inkscape:groupmode="layer"
     id="layer1"
     transform="translate(0,-252.36216)">
    <path
       style="fill:url(#linearGradient5348);fill-opacity:1"
       d="m 915.8784,284.23171 c -42.6679,0.19808 -83.41493,3.83818 -119.26799,10.18238 -105.61845,18.65939 -124.7939,57.71504 -124.7939,129.74022 l 0,95.12319 249.58962,0 0,31.70646 -249.58962,0 -93.66877,0 c -72.5376,0 -136.05383,43.60088 -155.92076,126.54171 -9.93241,41.20474 -15.7438,75.6935 -17.20004,109.63134 l 660.12266,0 c 60.1189,-9.40835 105.5545,-62.22677 105.5545,-125.34155 l 0,-237.66115 c 0,-67.64017 -57.0614,-118.45133 -124.7939,-129.74022 -42.8758,-7.13718 -87.364,-10.38065 -130.0318,-10.18238 z m -134.97629,76.50605 c 25.78082,0 46.83525,21.39862 46.83525,47.70825 -9e-5,26.21649 -21.05453,47.41485 -46.83525,47.41485 -25.8734,0 -46.83352,-21.19836 -46.83352,-47.41485 -1.9e-4,-26.30963 20.96012,-47.70825 46.83352,-47.70825 z"
       id="path5344"
       inkscape:export-xdpi="26.629999"
       inkscape:export-ydpi="26.629999"
       inkscape:connector-curvature="0" />
    <path
       id="path5326"
       d="M 750.05035,677.6074 C 481.79561,677.67386 227.8188,715.21747 58.219642,779.87716 l -0.166862,0 0,0.0574 -0.321707,0.11333 0.321707,0 0,8.18979 1384.07492,0 0,-8.18979 0.1412,0 -0.1412,-0.0492 0,-0.12189 -0.3551,0 C 1272.1976,715.2263 1018.267,677.68323 750.05035,677.60704 Z m 0,29.94809 c 221.7482,0.13909 435.41465,25.91472 599.49205,72.32167 l -1198.90067,0 C 314.69777,733.47622 528.3311,707.70032 750.05035,707.55549 Z"
       style="opacity:1;fill:#212121;fill-opacity:1;stroke:none;stroke-width:0.20701601;stroke-linecap:butt;stroke-linejoin:miter;stroke-miterlimit:4;stroke-dasharray:none;stroke-opacity:1"
       inkscape:connector-curvature="0"
       sodipodi:nodetypes="cccccccccccccccccc"
       inkscape:export-xdpi="26.629999"
       inkscape:export-ydpi="26.629999" />
    <path
       id="path5328"
       d="m 383.34111,533.20657 c -89.2438,1.30485 -144.69241,182.20862 -161.67298,246.84191 l 7.26991,0 c 22.71622,-77.29575 75.21949,-219.70936 154.40307,-220.8671 80.00031,-1.16986 142.6867,144.06592 170.25438,220.8671 l 8.95364,0 C 542.14011,717.65549 473.78962,531.88397 383.34111,533.20657 Z"
       style="fill:#212121;fill-opacity:1;fill-rule:evenodd;stroke:none;stroke-width:1px;stroke-linecap:butt;stroke-linejoin:miter;stroke-opacity:1"
       inkscape:connector-curvature="0"
       inkscape:export-xdpi="26.629999"
       inkscape:export-ydpi="26.629999" />
    <path
       id="path5330"
       d="m 627.95592,464.20638 c -33.61932,45.14934 -47.58363,255.95003 -50.9175,315.8421 l 9.38377,0 c 6.55139,-103.81721 22.70639,-288.12921 55.03705,-288.12921 32.87977,0 55.60419,186.49613 68.80784,288.12921 l 13.93382,0 C 717.35947,717.7122 692.05039,509.22482 654.93353,464.20638 l -26.97761,0 z"
       style="fill:#212121;fill-opacity:1;fill-rule:evenodd;stroke:none;stroke-width:1px;stroke-linecap:butt;stroke-linejoin:miter;stroke-opacity:1"
       inkscape:connector-curvature="0"
       inkscape:export-xdpi="26.629999"
       inkscape:export-ydpi="26.629999" />
    <path
       id="path5332"
       d="M 969.92721,429.09442 C 839.11955,428.87713 762.50062,698.21915 742.22069,780.04848 l 31.05958,0 c 28.85815,-112.21464 96.96604,-326.01174 197.19003,-325.02522 77.5578,0 185.4281,218.80641 233.2592,325.02522 l 36.779,0 C 1206.1542,688.97703 1097.1021,429.3058 969.92721,429.09442 Z"
       style="fill:#212121;fill-opacity:1;fill-rule:evenodd;stroke:none;stroke-width:1px;stroke-linecap:butt;stroke-linejoin:miter;stroke-opacity:1"
       inkscape:connector-curvature="0"
       inkscape:export-xdpi="26.629999"
       inkscape:export-ydpi="26.629999" />
    <text
       sodipodi:linespacing="125%"
       id="text5334"
       y="978.89636"
       x="265.0477"
       style="font-style:normal;font-weight:normal;font-size:36.41281128px;line-height:125%;font-family:sans-serif;letter-spacing:0px;word-spacing:0px;fill:#000000;fill-opacity:1;stroke:none;stroke-width:1px;stroke-linecap:butt;stroke-linejoin:miter;stroke-opacity:1"
       xml:space="preserve"
       inkscape:export-xdpi="26.629999"
       inkscape:export-ydpi="26.629999"><tspan
         id="tspan5336"
         style="font-style:normal;font-variant:normal;font-weight:normal;font-stretch:normal;font-size:204.82206726px;font-family:Ubuntu;-inkscape-font-specification:Ubuntu;fill:#212121;fill-opacity:1"
         y="978.89636"
         x="265.0477"
         sodipodi:role="line">Grupy-DF</tspan></text>
  </g>
</svg>
