<?xml version="1.0" encoding="UTF-8" standalone="no"?>
<!-- Created with Inkscape (http://www.inkscape.org/) -->

<svg
   xmlns:dc="http://purl.org/dc/elements/1.1/"
   xmlns:cc="http://creativecommons.org/ns#"
   xmlns:rdf="http://www.w3.org/1999/02/22-rdf-syntax-ns#"
   xmlns:svg="http://www.w3.org/2000/svg"
   xmlns="http://www.w3.org/2000/svg"
   xmlns:xlink="http://www.w3.org/1999/xlink"
   xmlns:sodipodi="http://sodipodi.sourceforge.net/DTD/sodipodi-0.dtd"
   xmlns:inkscape="http://www.inkscape.org/namespaces/inkscape"
   width="1500"
   height="800"
   viewBox="0 0 1500 800.00001"
   id="svg2"
   version="1.1"
   inkscape:version="0.91 r13725"
   sodipodi:docname="proposta-4.svg">
  <defs
     id="defs4">
    <linearGradient
       id="linearGradient2795">
      <stop
         id="stop2797"
         offset="0"
         style="stop-color:#b8b8b8;stop-opacity:0.49803922;" />
      <stop
         id="stop2799"
         offset="1"
         style="stop-color:#7f7f7f;stop-opacity:0;" />
    </linearGradient>
    <linearGradient
       id="linearGradient2787">
      <stop
         id="stop2789"
         offset="0"
         style="stop-color:#7f7f7f;stop-opacity:0.5;" />
      <stop
         id="stop2791"
         offset="1"
         style="stop-color:#7f7f7f;stop-opacity:0;" />
    </linearGradient>
    <linearGradient
       id="linearGradient3676">
      <stop
         id="stop3678"
         offset="0"
         style="stop-color:#b2b2b2;stop-opacity:0.5;" />
      <stop
         id="stop3680"
         offset="1"
         style="stop-color:#b3b3b3;stop-opacity:0;" />
    </linearGradient>
    <linearGradient
       id="linearGradient3236">
      <stop
         id="stop3244"
         offset="0"
         style="stop-color:#f4f4f4;stop-opacity:1" />
      <stop
         id="stop3240"
         offset="1"
         style="stop-color:white;stop-opacity:1" />
    </linearGradient>
    <linearGradient
       id="linearGradient4671">
      <stop
         id="stop4673"
         offset="0"
         style="stop-color:#ffd43b;stop-opacity:1;" />
      <stop
         id="stop4675"
         offset="1"
         style="stop-color:#ffe873;stop-opacity:1" />
    </linearGradient>
    <linearGradient
       id="linearGradient4689">
      <stop
         id="stop4691"
         offset="0"
         style="stop-color:#5a9fd4;stop-opacity:1;" />
      <stop
         id="stop4693"
         offset="1"
         style="stop-color:#306998;stop-opacity:1;" />
    </linearGradient>
    <linearGradient
       gradientTransform="translate(100.2702,99.61116)"
       gradientUnits="userSpaceOnUse"
       xlink:href="#linearGradient4671"
       id="linearGradient2987"
       y2="144.75717"
       x2="-65.308502"
       y1="144.75717"
       x1="224.23996" />
    <linearGradient
       gradientTransform="translate(100.2702,99.61116)"
       gradientUnits="userSpaceOnUse"
       xlink:href="#linearGradient4689"
       id="linearGradient2990"
       y2="76.313133"
       x2="26.670298"
       y1="77.475983"
       x1="172.94208" />
    <linearGradient
       y2="144.75717"
       x2="-65.308502"
       y1="144.75717"
       x1="224.23996"
       gradientTransform="matrix(0.562541,0,0,0.567972,-11.5974,-7.60954)"
       gradientUnits="userSpaceOnUse"
       id="linearGradient2255"
       xlink:href="#linearGradient4671"
       inkscape:collect="always" />
    <linearGradient
       y2="76.313133"
       x2="26.670298"
       y1="76.176224"
       x1="172.94208"
       gradientTransform="matrix(0.562541,0,0,0.567972,-11.5974,-7.60954)"
       gradientUnits="userSpaceOnUse"
       id="linearGradient2258"
       xlink:href="#linearGradient4689"
       inkscape:collect="always" />
    <radialGradient
       gradientUnits="userSpaceOnUse"
       gradientTransform="matrix(1,0,0,0.177966,0,108.7434)"
       r="29.036913"
       fy="132.28575"
       fx="61.518883"
       cy="132.28575"
       cx="61.518883"
       id="radialGradient2801"
       xlink:href="#linearGradient2795"
       inkscape:collect="always" />
    <linearGradient
       inkscape:collect="always"
       xlink:href="#linearGradient4689"
       id="linearGradient5348"
       gradientUnits="userSpaceOnUse"
       gradientTransform="matrix(5.7523962,0,0,5.8079322,1078.9869,2629.5095)"
       x1="26.648937"
       y1="20.603781"
       x2="135.66525"
       y2="114.39767" />
  </defs>
  <sodipodi:namedview
     id="base"
     pagecolor="#ffffff"
     bordercolor="#666666"
     borderopacity="1.0"
     inkscape:pageopacity="0.0"
     inkscape:pageshadow="2"
     inkscape:zoom="0.24748737"
     inkscape:cx="1572.8509"
     inkscape:cy="653.49655"
     inkscape:document-units="px"
     inkscape:current-layer="layer1"
     showgrid="false"
     inkscape:window-width="1600"
     inkscape:window-height="834"
     inkscape:window-x="0"
     inkscape:window-y="27"
     inkscape:window-maximized="1"
     units="px" />
  <metadata
     id="metadata7">
    <rdf:RDF>
      <cc:Work
         rdf:about="">
        <dc:format>image/svg+xml</dc:format>
        <dc:type
           rdf:resource="http://purl.org/dc/dcmitype/StillImage" />
        <dc:title></dc:title>
      </cc:Work>
    </rdf:RDF>
  </metadata>
  <g
     inkscape:label="Camada 1"
     inkscape:groupmode="layer"
     id="layer1"
     transform="translate(0,-252.36216)">
    <g
       id="g5491"
       transform="matrix(0.91032031,0,0,0.91032031,-717.11535,-2219.4056)">
      <path
         inkscape:export-ydpi="26.629999"
         inkscape:export-xdpi="26.629999"
         sodipodi:nodetypes="cccccccccccccccccc"
         inkscape:connector-curvature="0"
         style="opacity:0.93999999;fill:#212121;fill-opacity:1;stroke:none;stroke-width:0.20701601;stroke-linecap:butt;stroke-linejoin:miter;stroke-miterlimit:4;stroke-dasharray:none;stroke-opacity:1"
         d="m 1611.7027,3182.4106 c -294.6817,0.073 -573.6789,41.3152 -759.98602,112.3448 l -0.1833,0 0,0.063 -0.3534,0.1245 0.3534,0 0,8.9966 1520.42632,0 0,-8.9966 0.1551,0 -0.1551,-0.054 0,-0.1339 -0.3901,0 c -186.2806,-71.0195 -465.227,-112.2611 -759.8669,-112.3448 z m 0,32.8984 c 243.5936,0.1528 478.3093,28.4677 658.5507,79.4464 l -1317.00972,0 c 180.21792,-50.9721 414.89722,-79.2873 658.45902,-79.4464 z"
         id="path5326" />
      <g
         id="g5428">
        <path
           style="fill:url(#linearGradient5348);fill-opacity:1"
           d="m 1793.8672,2749.1836 c -46.8713,0.2176 -91.6325,4.2163 -131.0176,11.1855 -116.0234,20.4976 -137.0879,63.4008 -137.0879,142.5215 l 0,104.4942 274.1778,0 0,34.83 -274.1778,0 -102.8965,0 c -79.6836,0 -149.4571,47.8962 -171.2812,139.0079 -10.9109,45.264 -17.2948,83.1504 -18.8945,120.4316 l 725.1543,0 c 66.0415,-10.3352 115.9531,-68.357 115.9531,-137.6895 l 0,-261.0742 c 0,-74.3037 -62.6828,-130.1205 -137.0879,-142.5215 -47.0997,-7.8403 -95.9706,-11.4033 -142.8418,-11.1855 z m -148.2734,84.043 c 28.3206,0 51.4492,23.5067 51.4492,52.4082 -10e-5,28.7992 -23.1287,52.0859 -51.4492,52.0859 -28.4223,0 -51.4473,-23.2867 -51.4473,-52.0859 -2e-4,-28.9015 23.025,-52.4082 51.4473,-52.4082 z"
           id="path5344"
           inkscape:export-xdpi="26.629999"
           inkscape:export-ydpi="26.629999"
           inkscape:connector-curvature="0" />
        <path
           id="path5328"
           d="m 1208.8673,3023.7842 c -98.0356,1.4334 -158.9467,200.1588 -177.6001,271.1594 l 7.9861,0 c 24.9541,-84.9105 82.6297,-241.3539 169.614,-242.6257 87.8815,-1.2851 156.7434,158.2585 187.0269,242.6257 l 9.8357,0 c -22.4196,-68.5396 -97.5036,-272.6123 -196.8626,-271.1594 z"
           style="fill:#212121;fill-opacity:1;fill-rule:evenodd;stroke:none;stroke-width:1px;stroke-linecap:butt;stroke-linejoin:miter;stroke-opacity:1"
           inkscape:connector-curvature="0"
           inkscape:export-xdpi="26.629999"
           inkscape:export-ydpi="26.629999" />
        <path
           id="path5330"
           d="m 1477.5802,2947.9865 c -36.9313,49.5972 -52.2713,281.1648 -55.9336,346.9571 l 10.3082,0 c 7.1968,-114.0447 24.9433,-316.5141 60.459,-316.5141 36.1189,0 61.082,204.8687 75.5864,316.5141 l 15.3065,0 c -7.5154,-68.4773 -35.3178,-297.5037 -76.0912,-346.9571 l -29.6353,0 z"
           style="fill:#212121;fill-opacity:1;fill-rule:evenodd;stroke:none;stroke-width:1px;stroke-linecap:butt;stroke-linejoin:miter;stroke-opacity:1"
           inkscape:connector-curvature="0"
           inkscape:export-xdpi="26.629999"
           inkscape:export-ydpi="26.629999" />
        <path
           id="path5332"
           d="m 1853.2406,2909.4155 c -143.6941,-0.2387 -227.8611,295.6374 -250.1389,385.5281 l 34.1194,0 c 31.7011,-123.2694 106.5186,-358.1286 216.6161,-357.0449 85.1984,0 203.6954,240.362 256.2386,357.0449 l 40.4023,0 c -37.7387,-100.0433 -157.534,-385.2959 -297.2375,-385.5281 z"
           style="fill:#212121;fill-opacity:1;fill-rule:evenodd;stroke:none;stroke-width:1px;stroke-linecap:butt;stroke-linejoin:miter;stroke-opacity:1"
           inkscape:connector-curvature="0"
           inkscape:export-xdpi="26.629999"
           inkscape:export-ydpi="26.629999" />
        <text
           sodipodi:linespacing="125%"
           id="text5334"
           y="3513.3809"
           x="1078.9203"
           style="font-style:normal;font-weight:normal;font-size:40px;line-height:125%;font-family:sans-serif;letter-spacing:0px;word-spacing:0px;fill:#000000;fill-opacity:1;stroke:none;stroke-width:1px;stroke-linecap:butt;stroke-linejoin:miter;stroke-opacity:1"
           xml:space="preserve"
           inkscape:export-xdpi="26.629999"
           inkscape:export-ydpi="26.629999"><tspan
             id="tspan5336"
             style="font-style:normal;font-variant:normal;font-weight:normal;font-stretch:normal;font-size:225px;font-family:Ubuntu;-inkscape-font-specification:Ubuntu;fill:#212121;fill-opacity:1"
             y="3513.3809"
             x="1078.9203"
             sodipodi:role="line">Grupy-DF</tspan></text>
      </g>
    </g>
  </g>
</svg>
