<?xml version="1.0" encoding="UTF-8" standalone="no"?>
<!-- Created with Inkscape (http://www.inkscape.org/) -->

<svg
   xmlns:dc="http://purl.org/dc/elements/1.1/"
   xmlns:cc="http://creativecommons.org/ns#"
   xmlns:rdf="http://www.w3.org/1999/02/22-rdf-syntax-ns#"
   xmlns:svg="http://www.w3.org/2000/svg"
   xmlns="http://www.w3.org/2000/svg"
   xmlns:xlink="http://www.w3.org/1999/xlink"
   xmlns:sodipodi="http://sodipodi.sourceforge.net/DTD/sodipodi-0.dtd"
   xmlns:inkscape="http://www.inkscape.org/namespaces/inkscape"
   width="1500"
   height="800"
   viewBox="0 0 1500 800.00001"
   id="svg2"
   version="1.1"
   inkscape:version="0.91 r13725"
   sodipodi:docname="proposta-5.svg">
  <defs
     id="defs4">
    <linearGradient
       id="linearGradient2795">
      <stop
         id="stop2797"
         offset="0"
         style="stop-color:#b8b8b8;stop-opacity:0.49803922;" />
      <stop
         id="stop2799"
         offset="1"
         style="stop-color:#7f7f7f;stop-opacity:0;" />
    </linearGradient>
    <linearGradient
       id="linearGradient2787">
      <stop
         id="stop2789"
         offset="0"
         style="stop-color:#7f7f7f;stop-opacity:0.5;" />
      <stop
         id="stop2791"
         offset="1"
         style="stop-color:#7f7f7f;stop-opacity:0;" />
    </linearGradient>
    <linearGradient
       id="linearGradient3676">
      <stop
         id="stop3678"
         offset="0"
         style="stop-color:#b2b2b2;stop-opacity:0.5;" />
      <stop
         id="stop3680"
         offset="1"
         style="stop-color:#b3b3b3;stop-opacity:0;" />
    </linearGradient>
    <linearGradient
       id="linearGradient3236">
      <stop
         id="stop3244"
         offset="0"
         style="stop-color:#f4f4f4;stop-opacity:1" />
      <stop
         id="stop3240"
         offset="1"
         style="stop-color:white;stop-opacity:1" />
    </linearGradient>
    <linearGradient
       id="linearGradient4671">
      <stop
         id="stop4673"
         offset="0"
         style="stop-color:#ffd43b;stop-opacity:1;" />
      <stop
         id="stop4675"
         offset="1"
         style="stop-color:#ffe873;stop-opacity:1" />
    </linearGradient>
    <linearGradient
       id="linearGradient4689">
      <stop
         id="stop4691"
         offset="0"
         style="stop-color:#5a9fd4;stop-opacity:1;" />
      <stop
         id="stop4693"
         offset="1"
         style="stop-color:#306998;stop-opacity:1;" />
    </linearGradient>
    <linearGradient
       gradientTransform="translate(100.2702,99.61116)"
       gradientUnits="userSpaceOnUse"
       xlink:href="#linearGradient4671"
       id="linearGradient2987"
       y2="144.75717"
       x2="-65.308502"
       y1="144.75717"
       x1="224.23996" />
    <linearGradient
       gradientTransform="translate(100.2702,99.61116)"
       gradientUnits="userSpaceOnUse"
       xlink:href="#linearGradient4689"
       id="linearGradient2990"
       y2="76.313133"
       x2="26.670298"
       y1="77.475983"
       x1="172.94208" />
    <linearGradient
       y2="144.75717"
       x2="-65.308502"
       y1="144.75717"
       x1="224.23996"
       gradientTransform="matrix(0.562541,0,0,0.567972,-11.5974,-7.60954)"
       gradientUnits="userSpaceOnUse"
       id="linearGradient2255"
       xlink:href="#linearGradient4671"
       inkscape:collect="always" />
    <linearGradient
       y2="76.313133"
       x2="26.670298"
       y1="76.176224"
       x1="172.94208"
       gradientTransform="matrix(0.562541,0,0,0.567972,-11.5974,-7.60954)"
       gradientUnits="userSpaceOnUse"
       id="linearGradient2258"
       xlink:href="#linearGradient4689"
       inkscape:collect="always" />
    <radialGradient
       gradientUnits="userSpaceOnUse"
       gradientTransform="matrix(1,0,0,0.177966,0,108.7434)"
       r="29.036913"
       fy="132.28575"
       fx="61.518883"
       cy="132.28575"
       cx="61.518883"
       id="radialGradient2801"
       xlink:href="#linearGradient2795"
       inkscape:collect="always" />
    <linearGradient
       inkscape:collect="always"
       xlink:href="#linearGradient4689"
       id="linearGradient5389"
       gradientUnits="userSpaceOnUse"
       gradientTransform="matrix(1.9102375,0,0,1.9286797,776.30571,495.71931)"
       x1="26.648937"
       y1="20.603781"
       x2="135.66525"
       y2="114.39767" />
    <linearGradient
       inkscape:collect="always"
       xlink:href="#linearGradient4671"
       id="linearGradient5391"
       gradientUnits="userSpaceOnUse"
       gradientTransform="matrix(1.9102375,0,0,-1.9286797,103.7965,954.73919)"
       x1="150.96111"
       y1="192.35176"
       x2="112.03144"
       y2="137.27299" />
  </defs>
  <sodipodi:namedview
     id="base"
     pagecolor="#ffffff"
     bordercolor="#666666"
     borderopacity="1.0"
     inkscape:pageopacity="0.0"
     inkscape:pageshadow="2"
     inkscape:zoom="0.35"
     inkscape:cx="515.24461"
     inkscape:cy="534.50258"
     inkscape:document-units="px"
     inkscape:current-layer="layer1"
     showgrid="false"
     inkscape:window-width="1366"
     inkscape:window-height="704"
     inkscape:window-x="0"
     inkscape:window-y="27"
     inkscape:window-maximized="1"
     units="px" />
  <metadata
     id="metadata7">
    <rdf:RDF>
      <cc:Work
         rdf:about="">
        <dc:format>image/svg+xml</dc:format>
        <dc:type
           rdf:resource="http://purl.org/dc/dcmitype/StillImage" />
        <dc:title />
      </cc:Work>
    </rdf:RDF>
  </metadata>
  <g
     inkscape:label="Camada 1"
     inkscape:groupmode="layer"
     id="layer1"
     transform="translate(0,-252.36216)">
    <path
       inkscape:export-ydpi="26.629999"
       inkscape:export-xdpi="26.629999"
       sodipodi:nodetypes="cccccccccccccccccc"
       inkscape:connector-curvature="0"
       style="opacity:1;fill:#212121;fill-opacity:1;stroke:none;stroke-width:0.20701601;stroke-linecap:butt;stroke-linejoin:miter;stroke-miterlimit:4;stroke-dasharray:none;stroke-opacity:1"
       d="m 750.05326,601.92531 c -283.70364,0.0703 -552.30709,39.77605 -731.67357,108.15951 l -0.176471,0 0,0.0607 -0.340235,0.11987 0.340235,0 0,8.66144 1463.784481,0 0,-8.66144 0.1493,0 -0.1493,-0.052 0,-0.12891 -0.3756,0 C 1302.2712,641.71069 1033.7167,602.00551 750.05326,601.92492 Z m 0,31.6728 c 234.51877,0.14711 460.49034,27.40717 634.01704,76.48671 l -1267.94589,0 C 289.62853,661.01163 515.5651,633.75129 750.05326,633.59811 Z"
       id="path5359" />
    <path
       inkscape:export-ydpi="26.629999"
       inkscape:export-xdpi="26.629999"
       inkscape:connector-curvature="0"
       style="fill:#212121;fill-opacity:1;fill-rule:evenodd;stroke:none;stroke-width:1px;stroke-linecap:butt;stroke-linejoin:miter;stroke-opacity:1"
       d="m 362.22507,449.20837 c -94.38338,1.38 -153.0253,192.70209 -170.98379,261.05764 l 7.68859,0 c 24.02446,-81.74725 79.55141,-232.36251 163.2952,-233.58693 84.60757,-1.23723 150.90409,152.36274 180.05941,233.58693 l 9.46928,0 C 530.16938,644.27978 457.88256,447.8096 362.22507,449.20837 Z"
       id="path5361" />
    <path
       inkscape:export-ydpi="26.629999"
       inkscape:export-xdpi="26.629999"
       inkscape:connector-curvature="0"
       style="fill:#212121;fill-opacity:1;fill-rule:evenodd;stroke:none;stroke-width:1px;stroke-linecap:butt;stroke-linejoin:miter;stroke-opacity:1"
       d="m 620.92735,376.23444 c -35.55546,47.7495 -50.32398,270.69029 -53.84985,334.03157 l 9.92418,0 c 6.92869,-109.79608 24.01406,-304.7227 58.20666,-304.7227 34.77333,0 58.80646,197.23653 72.77051,304.7227 l 14.73627,0 C 715.4797,644.33976 688.71305,423.8455 649.45862,376.23444 l -28.53127,0 z"
       id="path5363" />
    <path
       inkscape:export-ydpi="26.629999"
       inkscape:export-xdpi="26.629999"
       inkscape:connector-curvature="0"
       style="fill:#212121;fill-opacity:1;fill-rule:evenodd;stroke:none;stroke-width:1px;stroke-linecap:butt;stroke-linejoin:miter;stroke-opacity:1"
       d="M 982.59292,339.10036 C 844.25199,338.87055 763.22054,623.72409 741.77268,710.26601 l 32.84832,0 c 30.52011,-118.67713 102.55036,-344.78689 208.54629,-343.74356 82.02441,0 196.10691,231.40756 246.69271,343.74356 l 38.8971,0 C 1232.4244,613.94972 1117.0919,339.32391 982.59292,339.10036 Z"
       id="path5365" />
    <text
       inkscape:export-ydpi="26.629999"
       inkscape:export-xdpi="26.629999"
       xml:space="preserve"
       style="font-style:normal;font-weight:normal;font-size:38.50984192px;line-height:125%;font-family:sans-serif;letter-spacing:0px;word-spacing:0px;fill:#000000;fill-opacity:1;stroke:none;stroke-width:1px;stroke-linecap:butt;stroke-linejoin:miter;stroke-opacity:1"
       x="237.11903"
       y="920.5658"
       id="text5367"
       sodipodi:linespacing="125%"><tspan
         sodipodi:role="line"
         x="237.11903"
         y="920.5658"
         style="font-style:normal;font-variant:normal;font-weight:normal;font-stretch:normal;font-size:216.61785889px;font-family:Ubuntu;-inkscape-font-specification:Ubuntu;fill:#212121;fill-opacity:1"
         id="tspan5369">Grupy-DF</tspan></text>
    <path
       style="fill:url(#linearGradient5389);fill-opacity:1"
       d="m 1013.7012,535.45973 c -15.56485,0.0722 -30.42907,1.40128 -43.50788,3.71562 -38.52871,6.80671 -45.52363,21.05275 -45.52363,47.32686 l 0,34.70026 91.04721,0 0,11.56614 -91.04721,0 -34.16998,0 c -26.46107,0 -49.63177,15.90486 -56.87904,46.16098 -2.76211,11.4587 -4.63148,21.48618 -5.60915,31.09371 l 260.70298,0 c 10.9323,-8.47361 17.9443,-21.85164 17.9443,-36.82311 l 0,-86.69798 c 0,-24.6745 -20.8154,-43.20881 -45.5236,-47.32686 -15.6407,-2.60365 -31.8692,-3.78802 -47.434,-3.71562 z m -49.23929,27.9103 c 9.40477,0 17.08498,7.80527 17.08498,17.40279 0,9.56353 -7.68021,17.29746 -17.08498,17.29746 -9.43829,0 -17.08307,-7.73393 -17.08307,-17.29746 -9e-5,-9.59752 7.64469,-17.40279 17.08307,-17.40279 z"
       id="path5385"
       inkscape:connector-curvature="0"
       inkscape:export-xdpi="26"
       inkscape:export-ydpi="26" />
    <path
       style="fill:url(#linearGradient5391);fill-opacity:1"
       d="m 343.81891,533.36191 c -15.84699,-0.10581 -30.82376,2.43651 -46.13479,6.93851 -24.06788,7.07897 -45.52354,21.5917 -45.52354,46.2663 l 0,86.69798 c 0,14.77112 7.22723,28.26786 18.294,36.82311 l 261.22573,0 c -0.89814,-10.54602 -3.03563,-20.7492 -6.48351,-31.09372 -9.20241,-27.7035 -19.06247,-46.16097 -45.52355,-46.16097 l -45.52363,0 -90.94186,0 0,-11.56615 90.94186,0 0,-34.70025 c 0,-26.27411 -22.60182,-39.62971 -45.52355,-46.2663 -16.16431,-4.69031 -30.82453,-6.84522 -44.80716,-6.93851 z m 50.53656,30.07262 c 9.43828,0 17.08499,7.80527 17.08499,17.40279 0,9.56353 -7.64671,17.29737 -17.08499,17.29747 -9.40478,0 -17.08489,-7.73394 -17.08489,-17.29747 0,-9.59752 7.68021,-17.40279 17.08489,-17.40279 z"
       id="path5387"
       inkscape:connector-curvature="0"
       inkscape:export-xdpi="26"
       inkscape:export-ydpi="26" />
  </g>
</svg>
