<?xml version="1.0" ?><!DOCTYPE svg  PUBLIC '-//W3C//DTD SVG 1.1//EN'  'http://www.w3.org/Graphics/SVG/1.1/DTD/svg11.dtd'><svg enable-background="new 0 0 300 300" height="300px" version="1.1" viewBox="0 0 300 300" width="300px" xml:space="preserve" xmlns="http://www.w3.org/2000/svg" xmlns:xlink="http://www.w3.org/1999/xlink"><g id="Layer_1"><g><g><path d="M160.658,78.668c-9.648-1.25-19.895,0.362-29.026,3.576c-6.709,2.361-16.078,6.96-16.479,15.192     c-0.379,7.78,7.37,12.773,13.794,15.151c7.687,2.844,16.404,3.546,24.518,4.002c9.137,0.513,18.465,0.102,27.432-1.805     c6.762-1.438,13.678-4.358,16.738-10.942c8.219-17.68-14.667-23.51-27.307-24.82C167.13,78.689,163.874,78.515,160.658,78.668     c-6.419,0.306-6.449,10.308,0,10c4.521-0.216,9.133,0.148,13.596,0.866c4.415,0.709,11.73,1.775,14.511,5.814     c2.579,3.746-2.44,7.208-5.351,8.315c-6.558,2.494-13.872,2.919-20.811,3.081c-7.569,0.177-15.225-0.319-22.678-1.666     c-4.749-0.858-11.463-2.031-14.464-6.344c-2.086-2.999,8.844-6.878,10.998-7.586c7.717-2.537,16.132-3.526,24.199-2.481     C167.04,89.495,166.961,79.484,160.658,78.668L160.658,78.668z" fill="#2F353A"/></g></g><g><g><path d="M133.455,104.756c-0.018,0-0.035,0-0.053,0c-2.211,0.004-4.248,1.521-4.821,3.671     c-0.079,0.261-0.14,0.526-0.186,0.795c-0.63,3.149,1.396,6.335,4.821,6.329c0.009,0,0.018,0,0.027,0     c2.211-0.004,4.248-1.521,4.821-3.671c0.071-0.265,0.141-0.53,0.212-0.795c-3.274-0.443-6.547-0.886-9.821-1.329     c0.471,14.255,0.837,28.552-0.691,42.759c-1.475,13.72-9.042,23.986-14.631,36.217c-10.099,22.102-27.984,41.536-24.421,67.447     c3.407,24.769,30.065,30.69,50.935,31.91c13.967,0.817,27.999-0.255,41.942-1.041c9.023-0.509,18.092-1.962,25.934-6.726     c24.299-14.762,13.176-49.053,4.479-69.631c-5.212-12.331-11.496-24.15-18.003-35.837c-4.548-8.167-7.878-15.909-8.738-25.379     c-1.149-12.638,0.593-25.411,0.664-38.063c0.036-6.45-9.964-6.447-10,0c-0.08,14.217-2.08,28.537-0.148,42.705     c1.417,10.395,5.775,18.912,10.772,27.915c7.861,14.165,15.423,28.617,20.686,43.978c4.224,12.327,8.652,28.678,0.809,40.492     c-3.913,5.894-11.306,8.341-17.881,9.645c-5.411,1.072-11.062,1.044-16.552,1.357c-7.333,0.419-14.669,0.757-22.015,0.833     c-15.625,0.16-39.007,0.442-49.146-13.943c-8.467-12.012-3.4-28.832,2.806-40.59c5.12-9.702,11.351-18.753,15.96-28.732     c3.892-8.427,8.93-16.305,12.532-24.863c3.683-8.75,4.321-18.535,4.834-27.926c0.591-10.828,0.232-21.697-0.125-32.526     c-0.184-5.572-8.336-6.898-9.821-1.329c-0.071,0.265-0.142,0.53-0.212,0.795c1.607-1.224,3.214-2.447,4.822-3.671     c-0.009,0-0.018,0-0.027,0c1.607,2.11,3.214,4.22,4.822,6.329c0.045-0.269,0.107-0.534,0.186-0.795     c-1.607,1.224-3.214,2.447-4.822,3.671c0.018,0,0.036,0,0.053,0C139.903,114.745,139.904,104.745,133.455,104.756     L133.455,104.756z" fill="#2F353A"/></g></g><g><g><path d="M194.82,29.17c-9.205-2.372-19.031,3.458-23.781,11.127c-6.602,10.659-2.292,27.888,8.732,33.797     c12.547,6.725,27.528-1.525,32.567-13.598c2.814-6.744,1.724-15.257-1.263-21.701c-3.115-6.721-10.643-9.658-17.585-9.804     c-6.452-0.136-6.439,9.864,0,10c10.169,0.215,11.919,10.727,9.205,18.847c-2.581,7.72-13.31,10.654-19.778,6.505     c-5.757-3.692-6.396-15.199-2.427-20.282c2.574-3.296,7.894-6.221,11.671-5.248C198.412,40.423,201.062,30.778,194.82,29.17     L194.82,29.17z" fill="#2F353A"/></g></g><g><g><path d="M157.128,5.421c-22.537-5.341-26.279,32.064-4.667,36.068c9.254,1.714,16.805-5.343,18.398-14.11     c1.814-9.979-3.767-18.69-13.18-21.958c-6.108-2.121-8.71,7.542-2.658,9.643c4.637,1.61,6.481,5.473,6.122,10.17     c-0.271,3.547-2.917,6.62-6.497,6.525c-9.377-0.248-9.03-18.793-0.177-16.695C160.74,16.55,163.401,6.908,157.128,5.421     L157.128,5.421z" fill="#2F353A"/></g></g><g><g><path d="M118.884,38.017c-6.786,4.063-8.003,12.288-4.937,19.101c3.844,8.54,14.847,9.264,22.324,5.94     c3.964-1.762,7.209-5.677,8.162-9.886c1.195-5.283-1.833-9.781-5.499-13.247c-6.002-5.673-14.642-6.25-21.062-1.125     c-2.133,1.703-1.765,5.306,0,7.071c2.087,2.087,4.943,1.698,7.071,0c-1.123,0.896-0.004,0.072,0.228-0.067     c0.473-0.283,0.249-0.2,1.239-0.496c1.271-0.38,2.665-0.041,3.968,0.649c1.721,0.911,4.278,3.027,4.316,5.099     c0.029,1.548-2.391,2.798-3.469,3.368c-3.061,1.619-7.042,0.652-8.642-2.353c-0.996-1.868-0.311-4.425,1.349-5.418     C129.456,43.343,124.431,34.695,118.884,38.017L118.884,38.017z" fill="#2F353A"/></g></g><g><g><path d="M128.082,209.433c-2.848,8.145-7.447,15.587-11.009,23.424c-2.938,6.464-6.323,14.578-3.663,21.689     c3.263,8.724,13.327,10.226,21.498,10.331c6.415,0.083,12.822,0.54,19.237,0.681c8.602,0.188,17.2-0.082,25.71-1.419     c6.458-1.015,14.089-3.136,18.325-8.502c4.811-6.094,3.07-13.343,0.838-20.139c-3.006-9.152-7.342-18.396-13.308-25.998     c-6.358-8.102-14.198-8.704-23.953-8.683c-5.974,0.012-11.921,0.541-17.833,1.368c-4.478,0.627-9.817,1.494-13.544,4.259     c-5.117,3.796-0.14,12.481,5.047,8.635c6.021-4.467,16.917-4.014,24.015-4.225c3.832-0.114,7.814-0.177,11.623,0.346     c3.238,0.444,4.798,1.983,6.951,4.577c5.842,7.038,9.71,16.637,12.278,25.319c1.693,5.723,1.442,8.91-4.499,11.23     c-14.147,5.523-31.505,3.314-46.323,2.68c-4.608-0.198-15.181,1.327-16.843-4.396c-1.785-6.151,4.201-15.243,6.805-20.416     c2.984-5.928,6.094-11.823,8.29-18.104C139.858,205.987,130.195,203.387,128.082,209.433L128.082,209.433z" fill="#2F353A"/></g></g><g><g><path d="M131.586,216.158c-2.488,7.405-5.828,16.242-4.288,24.149c0.791,4.057,3.533,6.946,7.515,8.065     c4.757,1.337,9.229-2.2,11.936-5.688c5.27-6.792,8.581-17.132,5.112-25.494c-4.242-10.226-15.489-4.534-19.142,2.904     c-3.598,7.327-6.396,17.686-4.054,25.756c2.02,6.959,8.901,9.771,14.992,5.725c10.149-6.743,20.173-29.971,6.927-38.367     c-16.212-10.277-26.399,22.51-25.922,33.509c0.281,6.479,9.571,6.406,10,0c0.091-1.368-0.456-2.567-1.078-3.746     c-0.353-0.669-0.827-1.296-1.243-1.927c-0.147-0.232-0.295-0.465-0.443-0.697c-1.067-2.31-2.214-0.956-3.441,4.06     c5.877-0.17,6.503-7.881,1.329-9.821c-4.539-1.702-8.539,1.308-8.973,5.937c-0.379,4.031,1.124,8.085,1.779,12.021     c0.484,2.907,3.689,3.869,6.15,3.492c15.567-2.383,13.457-24.888,18.728-35.463c-2.878,0-5.756,0-8.635,0     c1.658,2.436,2.885,5.076,3.993,7.8c1.435,3.527,7.081,5.586,9.139,1.194c1.031-2.199,1.721-4.944,3.226-6.88     c-1.478,1.899-2.144-1.083-2.064,0.345c0.079,1.415-0.461,2.84-0.883,4.162c-1.598,5.008-4.787,10.281-8.131,14.302     c2.845,1.178,5.69,2.356,8.536,3.535c0.666-8.874,3.194-20.3,10.34-26.257c-2.356,0-4.714,0-7.07,0     c4.454,4.518,3.108,11.351,0.342,16.427c3.105,0.841,6.212,1.683,9.317,2.523c0.002-6.472,0.008-13.14,1.534-19.46     c0.161-0.667,0.619-2.033,0.803-2.234c-2.391,2.625-4.7-0.99-3.534,0.886c0.472,0.759,0.737,1.606,1.025,2.443     c1.141,3.31,1.888,6.987,1.977,10.495c3.333,0,6.667,0,10,0c-0.538-4.437-0.987-8.852-0.179-13.286     c-1.607,1.224-3.214,2.447-4.821,3.671c-1.711-0.165-0.973-0.313-0.155,0.479c0.941,0.912,1.624,2.027,2.322,3.126     c1.895,2.982,3.337,6.251,4.556,9.558c1.099,2.984,2.084,6.178,2.369,9.357c0.251,2.802-1.028,2.162,1.445,0.538     c-0.348,0.229-1.338,0.493-2.27,0.771c-4.718,1.403-13.492,3.991-18.256,1.842c-1.044-0.472,3.146-5.028,3.646-5.515     c2.257-2.195,5.212-4.216,8.234-5.158c-2.109-1.607-4.22-3.214-6.329-4.821c-0.522,5.261-0.909,14.393-6.875,16.04     c-6.41,1.771-13.596,0.485-20.166,0.882c-5.374,0.324-7.124,8.634-1.329,9.821c15.663,3.211,36.392-3.406,37.808-21.684     c-3.273,0.443-6.548,0.886-9.821,1.329c0.896,2.664,2.099,6.954,4.097,8.951c0.821,0.822,1.861,1.078,2.834,1.631     c-1.858-2.874-1.871-4.813-0.038-5.817c-0.291,0.2-0.594,0.381-0.908,0.543c-3.68,2.05-8.676,2.607-12.756,3.364     c-10.111,1.877-22.829,2.826-31.978-2.514c-5.581-3.258-10.612,5.387-5.047,8.635c12.236,7.142,28.207,5.749,41.581,3.162     c4.941-0.955,11.721-1.969,15.525-5.613c4.952-4.743,0.558-9.817-4.35-11.747c1.164,1.164,2.328,2.328,3.492,3.492     c-0.782-2.322-2.031-4.431-2.811-6.745c-1.843-5.473-9.385-4.303-9.821,1.329c-0.86,11.109-16.449,13.824-25.149,12.041     c-0.443,3.273-0.886,6.548-1.329,9.821c9.256-0.559,18.682,0.942,27.408-2.943c7.815-3.479,8.916-16.763,9.633-23.979     c0.319-3.213-3.437-5.723-6.329-4.821c-8.773,2.735-22.498,12.99-18.598,23.704c3.899,10.709,20.384,6.854,28.575,4.871     c3.699-0.896,8.031-1.987,9.318-6.035c1.452-4.568,0.142-9.814-1.136-14.263c-2.313-8.056-7.466-22.674-17.394-23.633     c-2.046-0.197-4.454,1.657-4.821,3.671c-0.983,5.392-0.836,10.522-0.179,15.944c0.754,6.213,10.168,6.608,10,0     c-0.175-6.861-4.743-30.216-16.146-21.206c-3.941,3.114-4.403,9.581-4.968,14.143c-0.611,4.942-0.689,9.959-0.691,14.934     c-0.002,4.884,6.905,6.949,9.317,2.523c4.968-9.114,5.828-20.701-1.906-28.544c-2.041-2.071-4.991-1.733-7.07,0     c-9.186,7.655-12.417,21.955-13.27,33.327c-0.315,4.203,5.792,6.834,8.535,3.535c5.714-6.868,12.417-17.031,11.899-26.329     c-0.279-5.014-4.221-9.487-9.444-9.367c-6.098,0.141-8.206,7.165-10.308,11.65c3.046,0.398,6.093,0.796,9.139,1.194     c-1.429-3.514-2.857-7.04-5-10.188c-1.959-2.878-6.844-3.594-8.635,0c-2.691,5.399-3.623,11.461-5.009,17.278     c-1.043,4.377-2.303,12.756-7.742,13.589c2.05,1.164,4.1,2.328,6.15,3.492c-0.243-1.458-0.578-2.896-0.893-4.341     c-0.188-0.86-0.399-1.738-0.515-2.613c-0.024-0.296-0.048-0.592-0.072-0.888c0.185-2.277-1.024-1.549-3.627,2.185     c0.443-3.273,0.886-6.548,1.329-9.821c-3.131,0.091-7.357,2.089-6.877,5.973c0.202,1.631,0.558,2.845,1.284,4.325     c0.355,0.725,0.851,1.399,1.294,2.071c0.869,1.317,0.385,1.728,0.504-0.059c3.333,0,6.667,0,10,0     c-0.22-5.063,1.689-10.37,3.428-15.039c0.677-1.819,4.919-11.172,6.814-10.236c3.839,1.896,1.161,9.481,0.014,12.198     c-1.061,2.514-2.459,5.021-4.195,7.132c-0.615,0.748-1.335,1.587-2.113,2.169c-0.627,0.469-1.539,0.702-0.987,0.668     c0.278-0.018,0.883,0.119,1.06,0.382c-0.461-0.688-0.749-1.788-0.816-2.517c-0.305-3.323,0.589-6.802,1.382-9.993     c0.732-2.945,1.638-6.663,3.641-9.051c-0.19-0.448,0.177-0.711,1.103-0.787c-0.836,0.537-1.897-2.528-1.183-0.112     c0.475,1.606,0.293,3.444,0.213,5.091c-0.161,3.35-1.709,6.275-3.469,9.06c-0.702,1.111-1.748,2.556-3.056,2.986     c0.96-0.316,0.549-0.007,0.482-1.497c-0.273-6.141,2.32-12.615,4.248-18.354C143.289,212.687,133.628,210.078,131.586,216.158     L131.586,216.158z" fill="#2F353A"/></g></g><path d="M160.321,207.166c-8.235-2.479-24.308-0.532-22.485,11.15c0.421,2.697,3.752,4.152,6.15,3.492   c2.285-0.628,3.403-2.479,3.547-4.572c0.027-0.015,0.039-0.018,0.069-0.034c0.219-0.119,2.09-0.604,2.86-0.696   c2.705-0.325,5.149-0.314,7.199,0.303C163.854,218.672,166.479,209.02,160.321,207.166z" fill="#2F353A"/><path d="M193.272,243.641c0.115-2.183-0.527-4.356-2.57-6.799c-1.182-1.413-2.804-2.041-4.468-2.519   c-0.399-1.579-0.864-3.149-1.352-4.739c-1.425-4.647-7.207-4.369-9.304-1.343c-3.414-0.027-6.862,3.626-4.756,7.643   c0.322,0.613,0.677,1.177,1.048,1.718c2.14,3.338,4.646,6.184,7.908,8.597c0.631,0.467,1.33,0.701,2.042,0.763   c-0.345,0.763-0.673,1.532-0.988,2.313c-0.616,1.522-0.408,2.835,0.261,3.86c-1.244,4.686,4.649,9.615,8.25,5.167   c2.404-2.971,4.539-5.922,5.383-9.715C195.182,246.544,194.494,244.791,193.272,243.641z" fill="#2F353A"/><g><g><path d="M172.783,263.158c0-0.167,0-0.333,0-0.5c0-0.806-1.25-0.806-1.25,0c0,0.167,0,0.333,0,0.5     C171.533,263.964,172.783,263.964,172.783,263.158L172.783,263.158z" fill="#2F353A"/></g></g><g><g><path d="M175.917,270.694c11.647,1.18,25.923,1.532,35.982-5.418c0.658-0.455,0.034-1.539-0.631-1.08     c-9.885,6.83-23.88,6.41-35.352,5.248C175.115,269.363,175.123,270.614,175.917,270.694L175.917,270.694z" fill="#2F353A"/></g></g><g><g><path d="M176.251,267.028c13.039-0.005,26.101-0.301,37.648-7.085c0.694-0.408,0.065-1.489-0.631-1.08     c-11.356,6.672-24.21,6.911-37.018,6.915C175.445,265.778,175.445,267.028,176.251,267.028L176.251,267.028z" fill="#2F353A"/></g></g><g><g><path d="M176.085,262.006c13.492,2.125,26.532-2.722,39.332-6.334c0.774-0.219,0.445-1.425-0.332-1.205     c-12.538,3.539-25.443,8.417-38.668,6.334C175.629,260.677,175.29,261.881,176.085,262.006L176.085,262.006z" fill="#2F353A"/></g></g><g><g><path d="M193.917,256.028c6.83,0.308,15.1-0.255,20.982-4.085c0.673-0.438,0.047-1.521-0.631-1.08     c-5.721,3.725-13.707,4.215-20.352,3.915C193.11,254.742,193.114,255.992,193.917,256.028L193.917,256.028z" fill="#2F353A"/></g></g><g><g><path d="M198.251,251.028c4.83-0.096,9.473-1.329,14.166-2.356c0.787-0.172,0.453-1.377-0.332-1.205     c-4.583,1.002-9.115,2.218-13.834,2.312C197.446,249.794,197.444,251.044,198.251,251.028L198.251,251.028z" fill="#2F353A"/></g></g><g><g><path d="M198.917,245.028c5.411-0.457,10.907-0.938,16.166-2.356c0.777-0.21,0.447-1.415-0.332-1.205     c-5.156,1.391-10.527,1.863-15.834,2.312C198.12,243.846,198.113,245.096,198.917,245.028L198.917,245.028z" fill="#2F353A"/></g></g><g><g><path d="M198.584,238.694c4.991-0.354,9.983-0.716,14.833-2.022c0.777-0.209,0.447-1.415-0.332-1.205     c-4.742,1.277-9.621,1.631-14.501,1.978C197.785,237.501,197.779,238.752,198.584,238.694L198.584,238.694z" fill="#2F353A"/></g></g><g><g><path d="M196.917,233.361c4.905-0.026,9.75-0.409,14.5-1.689c0.777-0.209,0.447-1.415-0.332-1.205     c-4.642,1.251-9.376,1.619-14.168,1.645C196.111,232.115,196.11,233.365,196.917,233.361L196.917,233.361z" fill="#2F353A"/></g></g><g><g><path d="M193.917,227.361c5.743-0.002,11.492-0.039,17.166-1.022c0.793-0.138,0.456-1.342-0.332-1.205     c-5.562,0.963-11.206,0.976-16.834,0.978C193.111,226.111,193.111,227.361,193.917,227.361L193.917,227.361z" fill="#2F353A"/></g></g><g><g><path d="M191.584,222.694c5.668-0.026,11.302-0.39,16.833-1.688c0.785-0.184,0.452-1.39-0.332-1.205     c-5.423,1.272-10.946,1.618-16.501,1.644C190.778,221.448,190.777,222.698,191.584,222.694L191.584,222.694z" fill="#2F353A"/></g></g><g><g><path d="M190.917,218.361c5.235-0.046,10.442-0.645,15.5-2.022c0.777-0.212,0.447-1.417-0.332-1.205     c-4.953,1.349-10.041,1.933-15.168,1.978C190.111,217.118,190.11,218.368,190.917,218.361L190.917,218.361z" fill="#2F353A"/></g></g><g><g><path d="M184.584,212.028c6.827,0.363,14.3,0.466,20.648-2.419c0.733-0.334,0.097-1.41-0.631-1.08     c-6.128,2.785-13.427,2.6-20.018,2.249C183.778,210.735,183.782,211.985,184.584,212.028L184.584,212.028z" fill="#2F353A"/></g></g><g><g><path d="M178.584,205.694c7.548,0.757,15.396,0.049,22.833-1.355c0.792-0.149,0.455-1.354-0.332-1.205     c-7.314,1.381-15.071,2.056-22.501,1.311C177.782,204.364,177.79,205.614,178.584,205.694L178.584,205.694z" fill="#2F353A"/></g></g><g><g><path d="M165.085,200.672c10.996,2.424,22.492-0.183,33.499-1.311c0.794-0.081,0.802-1.332,0-1.25     c-10.869,1.113-22.308,3.748-33.167,1.355C164.632,199.294,164.298,200.499,165.085,200.672L165.085,200.672z" fill="#2F353A"/></g></g><g><g><path d="M162.75,196.339c11.284-2.26,23.045-1.977,34.501-1.978c0.806,0,0.806-1.25,0-1.25     c-11.575,0.001-23.431-0.261-34.833,2.022C161.628,195.292,161.963,196.497,162.75,196.339L162.75,196.339z" fill="#2F353A"/></g></g><g><g><path d="M160.251,190.694c11.052,0.379,22.279,0.99,33.166-1.355c0.788-0.17,0.454-1.375-0.332-1.205     c-10.772,2.321-21.9,1.686-32.834,1.311C159.444,189.417,159.447,190.667,160.251,190.694L160.251,190.694z" fill="#2F353A"/></g></g><g><g><path d="M159.584,185.361c10.643-0.203,21.332,1.806,31.833-0.689c0.784-0.187,0.451-1.392-0.332-1.205     c-10.388,2.468-20.978,0.443-31.501,0.645C158.779,184.127,158.777,185.377,159.584,185.361L159.584,185.361z" fill="#2F353A"/></g></g><g><g><path d="M158.25,181.028c10.416,0.622,21.048-0.506,31.167-3.022c0.782-0.194,0.45-1.399-0.332-1.205     c-10.019,2.491-20.521,3.594-30.835,2.978C157.444,179.73,157.449,180.98,158.25,181.028L158.25,181.028z" fill="#2F353A"/></g></g><g><g><path d="M158.52,176.569c0.259-0.811,11.403-1.273,12.861-1.414c4.083-0.394,8.365-0.521,12.369-1.483     c0.784-0.188,0.451-1.394-0.332-1.205c-5.562,1.335-11.593,1.378-17.269,1.953c-1.36,0.138-8.252-0.013-8.835,1.817     C157.069,177.008,158.276,177.334,158.52,176.569L158.52,176.569z" fill="#2F353A"/></g></g><g><g><path d="M157.899,171.943c7.702-3.802,16.846,0.636,24.851-2.271c0.752-0.272,0.428-1.481-0.332-1.205     c-8.124,2.95-17.264-1.495-25.149,2.396C156.546,171.221,157.18,172.299,157.899,171.943L157.899,171.943z" fill="#2F353A"/></g></g><g><g><path d="M157.416,167.006c8.272-1.5,16.727-0.5,25.001-2c0.792-0.144,0.456-1.348-0.332-1.205     c-8.272,1.499-16.727,0.5-25.001,2C156.291,165.944,156.628,167.148,157.416,167.006L157.416,167.006z" fill="#2F353A"/></g></g><g><g><path d="M156.25,160.694c7.567,0.242,15.104-0.595,22.667-0.666c0.806-0.008,0.807-1.258,0-1.25     c-7.563,0.071-15.1,0.908-22.667,0.666C155.443,159.419,155.446,160.669,156.25,160.694L156.25,160.694z" fill="#2F353A"/></g></g><g><g><path d="M157.75,156.339c6.951-1.458,14.042,0.46,21-1c0.789-0.165,0.454-1.37-0.332-1.205     c-6.951,1.458-14.042-0.46-21,1C156.629,155.299,156.964,156.504,157.75,156.339L157.75,156.339z" fill="#2F353A"/></g></g><g><g><path d="M157.083,151.339c7.24-1.205,14.545-0.376,21.834-0.312c0.807,0.007,0.806-1.243,0-1.25     c-7.41-0.066-14.808-0.869-22.166,0.356C155.957,150.266,156.295,151.471,157.083,151.339L157.083,151.339z" fill="#2F353A"/></g></g><g><g><path d="M157.584,145.694c5.889,0,11.778,0,17.667,0c0.806,0,0.806-1.25,0-1.25c-5.889,0-11.778,0-17.667,0     C156.778,144.444,156.778,145.694,157.584,145.694L157.584,145.694z" fill="#2F353A"/></g></g><g><g><path d="M158.416,141.672c5.99-1.248,12.1-0.687,18.168-0.644c0.807,0.006,0.806-1.244,0-1.25     c-6.187-0.044-12.396-0.583-18.5,0.688C157.295,140.631,157.63,141.836,158.416,141.672L158.416,141.672z" fill="#2F353A"/></g></g><g><g><path d="M158.083,137.006c5.772-1.432,11.963-0.367,17.834-0.312c0.807,0.008,0.806-1.242,0-1.25     c-5.998-0.057-12.267-1.108-18.166,0.356C156.969,135.995,157.301,137.2,158.083,137.006L158.083,137.006z" fill="#2F353A"/></g></g><g><g><path d="M158.917,132.028c5.558-0.025,11.109-0.31,16.667-0.334c0.806-0.003,0.807-1.253,0-1.25     c-5.558,0.024-11.109,0.309-16.667,0.334C158.111,130.782,158.11,132.032,158.917,132.028L158.917,132.028z" fill="#2F353A"/></g></g><g><g><path d="M160.187,126.569c-0.103,0.438,2.161,0.169,2.83,0.164c1.718-0.014,3.436,0.026,5.152,0.062     c3.249,0.067,6.498,0.216,9.748,0.233c0.807,0.004,0.806-1.246,0-1.25c-4.031-0.022-8.062-0.212-12.092-0.277     c-0.962-0.016-6.492-0.765-6.844,0.736C158.798,127.021,160.003,127.354,160.187,126.569L160.187,126.569z" fill="#2F353A"/></g></g><g><g><path d="M159.25,121.694c6.276-0.839,12.68,0.843,18.833-1.022c0.77-0.233,0.441-1.44-0.332-1.205     c-6.032,1.829-12.343,0.155-18.501,0.978C158.463,120.549,158.453,121.801,159.25,121.694L159.25,121.694z" fill="#2F353A"/></g></g><g><g><path d="M176.084,275.339c8.157-1.728,16.45,0.108,24.666-1c0.796-0.107,0.456-1.312-0.332-1.205     c-8.223,1.109-16.495-0.73-24.666,1C174.964,274.301,175.298,275.506,176.084,275.339L176.084,275.339z" fill="#2F353A"/></g></g><g><g><path d="M185.918,64.694c0.806,0,0.806-1.25,0-1.25S185.112,64.694,185.918,64.694L185.918,64.694z" fill="#2F353A"/></g></g><g><g><path d="M185.918,64.694c5.222,0,10.444,0,15.666,0c0.806,0,0.806-1.25,0-1.25c-5.222,0-10.444,0-15.666,0     C185.112,63.444,185.112,64.694,185.918,64.694L185.918,64.694z" fill="#2F353A"/></g></g><g><g><path d="M190.918,62.028c4.735,0.044,9.483,0.594,14.166-0.356c0.79-0.16,0.455-1.365-0.332-1.205     c-4.565,0.926-9.22,0.354-13.834,0.312C190.111,60.771,190.112,62.021,190.918,62.028L190.918,62.028z" fill="#2F353A"/></g></g><g><g><path d="M192.584,59.361c4.225-0.025,8.442-0.309,12.667-0.333c0.806-0.004,0.807-1.254,0-1.25     c-4.225,0.024-8.442,0.308-12.667,0.333C191.778,58.116,191.777,59.366,192.584,59.361L192.584,59.361z" fill="#2F353A"/></g></g><g><g><path d="M194.418,55.339c4.023,0.935,8.098,0.089,12.166,0.022c0.806-0.013,0.807-1.263,0-1.25     c-3.941,0.065-7.936,0.928-11.834,0.022C193.966,53.952,193.633,55.157,194.418,55.339L194.418,55.339z" fill="#2F353A"/></g></g><g><g><path d="M194.918,51.028c3.849,0.022,7.682,0.262,11.499-0.356c0.794-0.128,0.456-1.333-0.332-1.205     c-3.7,0.599-7.438,0.333-11.167,0.312C194.111,49.773,194.112,51.023,194.918,51.028L194.918,51.028z" fill="#2F353A"/></g></g><g><g><path d="M194.584,46.694c3.682,0.08,7.499,1.275,10.982-0.418c0.725-0.353,0.091-1.43-0.631-1.079     c-3.197,1.555-6.974,0.321-10.352,0.248C193.777,45.427,193.779,46.677,194.584,46.694L194.584,46.694z" fill="#2F353A"/></g></g><g><g><path d="M189.251,43.361c4.857,0.045,9.688,0.553,14.499-0.355c0.792-0.149,0.455-1.354-0.332-1.205     c-4.694,0.886-9.43,0.354-14.167,0.311C188.444,42.104,188.445,43.354,189.251,43.361L189.251,43.361z" fill="#2F353A"/></g></g><g><g><path d="M184.251,41.694c5.785-0.023,11.56-0.329,17.333-0.666c0.801-0.047,0.806-1.297,0-1.25     c-5.773,0.337-11.548,0.643-17.333,0.666C183.445,40.448,183.444,41.698,184.251,41.694L184.251,41.694z" fill="#2F353A"/></g></g><g><g><path d="M153.584,30.028c4.114,0.365,8.197,0.956,12.334,1c0.807,0.009,0.806-1.241,0-1.25     c-4.137-0.044-8.22-0.635-12.334-1C152.781,28.707,152.788,29.958,153.584,30.028L153.584,30.028z" fill="#2F353A"/></g></g><g><g><path d="M157.417,28.006c1.917-0.35,3.893-0.311,5.834-0.312c0.806,0,0.806-1.25,0-1.25     c-2.059,0-4.134-0.015-6.166,0.356C156.293,26.945,156.629,28.15,157.417,28.006L157.417,28.006z" fill="#2F353A"/></g></g><g><g><path d="M157.251,24.694c2.111,0,4.222,0,6.333,0c0.806,0,0.806-1.25,0-1.25c-2.111,0-4.222,0-6.333,0     C156.445,23.444,156.445,24.694,157.251,24.694L157.251,24.694z" fill="#2F353A"/></g></g><g><g><path d="M156.418,21.006c2.265,0.347,4.547,0.355,6.833,0.355c0.806,0,0.806-1.25,0-1.25     c-2.169,0-4.352,0.019-6.501-0.311C155.962,19.68,155.623,20.884,156.418,21.006L156.418,21.006z" fill="#2F353A"/></g></g><g><g><path d="M152.584,18.028c3.111,0,6.223,0,9.334,0c0.806,0,0.806-1.25,0-1.25c-3.111,0-6.223,0-9.334,0     C151.778,16.778,151.778,18.028,152.584,18.028L152.584,18.028z" fill="#2F353A"/></g></g><g><g><path d="M126.917,53.361c3.303-0.001,6.578-0.083,9.833-0.689c0.792-0.147,0.456-1.352-0.332-1.205     c-3.145,0.585-6.312,0.644-9.5,0.645C126.111,52.112,126.111,53.362,126.917,53.361L126.917,53.361z" fill="#2F353A"/></g></g><g><g><path d="M129.751,50.672c2.005,0.311,3.997,0.368,5.999,0c0.792-0.145,0.456-1.35-0.332-1.205     c-1.767,0.324-3.564,0.274-5.334,0C129.295,49.344,128.956,50.549,129.751,50.672L129.751,50.672z" fill="#2F353A"/></g></g><g><g><path d="M126.917,48.361c2.333,0,4.667,0,7,0c0.806,0,0.806-1.25,0-1.25c-2.333,0-4.667,0-7,0     C126.111,47.111,126.111,48.361,126.917,48.361L126.917,48.361z" fill="#2F353A"/></g></g><g><g><path d="M145.084,92.647c-2.583,0.871-7.393,1.155-9.051,3.704c-1.362,2.094-0.18,3.671,1.872,4.61     c2.976,1.361,6.778,1.158,9.97,1.289c7.293,0.298,14.551,1.309,21.849,0.574c2.883-0.291,16.925-4.569,8.015-7.813     c-3.348-1.219-6.84-1.732-10.369-2.063c-4.402-0.413-8.828-0.603-13.244-0.824C150.889,91.963,148.207,91.618,145.084,92.647     c-0.762,0.251-0.436,1.458,0.332,1.205c4.033-1.329,8.32-0.5,12.479-0.286c4.278,0.22,8.614,0.377,12.855,1.007     c1.99,0.295,3.953,0.754,5.871,1.358c3.537,1.114,1.548,3.228-1.136,4.308c-2.299,0.925-4.879,1.246-7.316,1.491     c-7.114,0.716-14.375-0.545-21.491-0.773c-2.982-0.095-6.136-0.158-8.894-1.418c-0.631-2.419,0.106-3.788,2.21-4.108     c0.677-0.231,1.361-0.439,2.052-0.625c1.125-0.321,2.261-0.579,3.37-0.954C146.176,93.597,145.85,92.389,145.084,92.647     L145.084,92.647z" fill="#2F353A"/></g></g></g><g id="Layer_2"/></svg>